<?xml version="1.0" encoding="UTF-8"?>
<svg width="256" height="256" version="1.1"
     xmlns="http://www.w3.org/2000/svg"
     xmlns:xlink="http://www.w3.org/1999/xlink">
  <defs>
    <linearGradient id="Gradient" x1="0" x2="0" y1="0" y2="1">
      <stop offset="0%" style="stop-color:#FF7800;stop-opacity:1" />
      <stop offset="100%" style="stop-color:#F66151;stop-opacity:1" />
    </linearGradient>
    <filter id="alpha-to-white">
      <feColorMatrix in="SourceGraphic" type="matrix"
                     values="0 0 0 0 1 0 0 0 0 1 0 0 0 0 1 0 0 0 1 0"/>
    </filter>
    <g id="child-svg"><svg xmlns="http://www.w3.org/2000/svg" height="16px" viewBox="0 0 16 16" width="16px">
    <g fill="#241f31">
        <path d="m 14.09375 4.003906 c 0 1.707032 -1.386719 3.09375 -3.09375 3.09375 s -3.09375 -1.386718 -3.09375 -3.09375 c 0 -1.710937 1.386719 -3.09375 3.09375 -3.09375 s 3.09375 1.382813 3.09375 3.09375 z m 0 0" />
        <path d="m 14.941406 15.363281 v -6 c 0 -0.207031 -0.109375 -0.398437 -0.289062 -0.503906 c -0.175782 -0.101563 -0.398438 -0.101563 -0.578125 0 l -5.261719 3.007813 c -0.179688 0.101562 -0.289062 0.289062 -0.289062 0.496093 c 0 0.203125 0.109374 0.394531 0.289062 0.496094 l 5.261719 3.007813 c 0.179687 0.101562 0.402343 0.101562 0.578125 -0.003907 c 0.179687 -0.101562 0.289062 -0.292969 0.289062 -0.5 z m 0 0" />
        <path d="m 2.007812 5 h 2.992188 c 1.105469 0 2 0.894531 2 2 l 0.003906 3 c 0 0.53125 -0.210937 1.039062 -0.585937 1.414062 s -0.882813 0.585938 -1.410157 0.585938 h -3 c -1.105468 0 -1.9999995 -0.894531 -1.9999995 -2 v -3 c 0 -1.105469 0.8945315 -2 1.9999995 -2 z m 0 0" />
    </g>
</svg></g>
  </defs>
  <rect
      width="256"
      height="256"
      fill="url(#Gradient)"
      ry="128"
      x="0"
      y="0" />
  <use xlink:href="#child-svg" filter="url(#alpha-to-white)"
       transform="matrix(8,0,0,8,64,64)" />
</svg>
