<?xml version="1.0" encoding="UTF-8"?>
<svg width="256" height="256" version="1.1"
     xmlns="http://www.w3.org/2000/svg"
     xmlns:xlink="http://www.w3.org/1999/xlink">
  <defs>
    <linearGradient id="Gradient" x1="0" x2="0" y1="0" y2="1">
      <stop offset="0%" style="stop-color:#1A5FB4;stop-opacity:1" />
      <stop offset="100%" style="stop-color:#99C1F1;stop-opacity:1" />
    </linearGradient>
    <filter id="alpha-to-white">
      <feColorMatrix in="SourceGraphic" type="matrix"
                     values="0 0 0 0 1 0 0 0 0 1 0 0 0 0 1 0 0 0 1 0"/>
    </filter>
    <g id="child-svg"><svg xmlns="http://www.w3.org/2000/svg" height="16px" viewBox="0 0 16 16" width="16px">
    <path d="m 6.992188 1 v 1.980469 h 2 c 0.484374 0 0.984374 0.394531 1 0.972656 v 8.058594 c -0.015626 0.582031 -0.515626 0.976562 -1 0.976562 h -2 v 2 h 2.984374 c 0.015626 0 0.03125 0 0.050782 -0.003906 c 0.472656 -0.019531 0.902344 -0.394531 0.957031 -0.894531 c 0.054687 0.511718 0.503906 0.894531 0.996094 0.894531 h 0.03125 h 2.976562 v -2 h -1.996093 c -0.488282 0 -0.988282 -0.390625 -1 -0.972656 v -8.058594 c 0.011718 -0.578125 0.511718 -0.972656 1 -0.972656 h 1.988281 v -1.980469 h -2.96875 c -0.011719 0 -0.023438 0 -0.03125 0 c -0.492188 0 -0.941407 0.382812 -0.996094 0.894531 c -0.054687 -0.5 -0.484375 -0.875 -0.957031 -0.894531 c -0.019532 0 -0.035156 0 -0.050782 0 z m 0 0" />
    <path d="m 5.058594 12.285156 c 0.914062 0 1.957031 -0.242187 2.601562 -0.59375 l -0.460937 -1.519531 c -0.488281 0.171875 -1.105469 0.269531 -1.628907 0.269531 c -1.6875 0 -2.660156 -0.996094 -2.660156 -2.636718 c 0 -1.542969 0.863282 -2.332032 2.394532 -2.332032 c 0.652343 0 1.417968 0.121094 1.878906 0.316406 l 0.585937 -1.652343 c -0.816406 -0.351563 -1.605469 -0.519531 -2.441406 -0.519531 c -2.707031 0 -4.601563 1.746093 -4.601563 4.394531 c 0 2.5625 1.773438 4.273437 4.332032 4.273437 z m 0 0" />
</svg></g>
  </defs>
  <rect
      width="256"
      height="256"
      fill="url(#Gradient)"
      ry="128"
      x="0"
      y="0" />
  <use xlink:href="#child-svg" filter="url(#alpha-to-white)"
       transform="matrix(8,0,0,8,64,64)" />
</svg>
