<?xml version="1.0" encoding="UTF-8"?>
<svg width="256" height="256" version="1.1"
     xmlns="http://www.w3.org/2000/svg"
     xmlns:xlink="http://www.w3.org/1999/xlink">
  <defs>
    <linearGradient id="Gradient" x1="0" x2="0" y1="0" y2="1">
      <stop offset="0%" style="stop-color:#62A0EA;stop-opacity:1" />
      <stop offset="100%" style="stop-color:#62A0EA;stop-opacity:1" />
    </linearGradient>
    <filter id="alpha-to-white">
      <feColorMatrix in="SourceGraphic" type="matrix"
                     values="0 0 0 0 1 0 0 0 0 1 0 0 0 0 1 0 0 0 1 0"/>
    </filter>
    <g id="child-svg"><svg xmlns="http://www.w3.org/2000/svg" height="16px" viewBox="0 0 16 16" width="16px">
    <path d="m 3 2.132812 v 13.40625 l 12.066406 -5.363281 z m 2 3.734376 l 5.933594 3.957031 l -5.933594 2.636719 z m 0 0" fill-opacity="0.239216" />
    <g fill="#241f31">
        <path d="m 2 0 h 4 c 1.101562 0 1.992188 0.890625 1.996094 1.992188 v 3.015624 c 0.003906 0.527344 -0.207032 1.035157 -0.582032 1.410157 c -0.371093 0.371093 -0.878906 0.582031 -1.40625 0.582031 h -4.007812 c -1.101562 0 -1.9921875 -0.890625 -1.9921875 -1.992188 v -3.015624 c 0 -1.101563 0.8906255 -1.992188 1.9921875 -1.992188 z m 0 0" />
        <path d="m 10.996094 7 h 3.003906 c 1.101562 0 1.996094 0.890625 1.996094 1.996094 l 0.003906 1.007812 c 0 0.53125 -0.210938 1.039063 -0.582031 1.410156 c -0.375 0.375 -0.882813 0.585938 -1.410157 0.585938 h -3.011718 c -1.101563 0 -1.996094 -0.894531 -1.996094 -1.996094 v -1.007812 c 0 -1.101563 0.894531 -1.996094 1.996094 -1.996094 z m 0 0" />
        <path d="m 3 11 h 3.007812 c 1.101563 0 1.992188 0.890625 1.996094 1.992188 v 1.015624 c 0 0.527344 -0.207031 1.035157 -0.582031 1.410157 c -0.371094 0.371093 -0.878906 0.582031 -1.40625 0.582031 h -3.015625 c -1.101562 0 -1.992188 -0.890625 -1.992188 -1.992188 v -1.015624 c 0 -1.101563 0.890626 -1.992188 1.992188 -1.992188 z m 0 0" />
    </g>
</svg></g>
  </defs>
  <rect
      width="256"
      height="256"
      fill="url(#Gradient)"
      ry="128"
      x="0"
      y="0" />
  <use xlink:href="#child-svg" filter="url(#alpha-to-white)"
       transform="matrix(8,0,0,8,64,64)" />
</svg>
