<?xml version="1.0" encoding="UTF-8"?>
<svg width="256" height="256" version="1.1"
     xmlns="http://www.w3.org/2000/svg"
     xmlns:xlink="http://www.w3.org/1999/xlink">
  <defs>
    <linearGradient id="Gradient" x1="0" x2="0" y1="0" y2="1">
      <stop offset="0%" style="stop-color:#3584E4;stop-opacity:1" />
      <stop offset="100%" style="stop-color:#DC8ADD;stop-opacity:1" />
    </linearGradient>
    <filter id="alpha-to-white">
      <feColorMatrix in="SourceGraphic" type="matrix"
                     values="0 0 0 1 0
                             0 0 0 1 0
                             0 0 0 1 0
                             0 0 0 1 0"/>
    </filter>
    <g id="child-svg">
<svg xmlns="http://www.w3.org/2000/svg" xmlns:xlink="http://www.w3.org/1999/xlink" width="16px" height="16px" viewBox="0 0 16 16" version="1.1">
<g id="surface1144">
<path style=" stroke:none;fill-rule:nonzero;fill:rgb(13.333334%,13.333334%,13.333334%);fill-opacity:1;" d="M 3 0.992188 C 1.355469 0.992188 0 2.347656 0 3.992188 L 0 8.992188 C 0 10.636719 1.355469 11.992188 3 11.992188 L 13 11.992188 C 14.644531 11.992188 16 10.636719 16 8.992188 L 16 3.992188 C 16 2.347656 14.644531 0.992188 13 0.992188 Z M 3 2.992188 L 13 2.992188 C 13.570312 2.992188 14 3.421875 14 3.992188 L 14 8.992188 C 14 9.5625 13.570312 9.992188 13 9.992188 L 3 9.992188 C 2.429688 9.992188 2 9.5625 2 8.992188 L 2 3.992188 C 2 3.421875 2.429688 2.992188 3 2.992188 Z M 3 2.992188 "/>
<path style=" stroke:none;fill-rule:nonzero;fill:rgb(13.333334%,13.333334%,13.333334%);fill-opacity:1;" d="M 5.503906 14.496094 C 5.503906 15.328125 4.832031 16 4 16 C 3.167969 16 2.496094 15.328125 2.496094 14.496094 C 2.496094 13.664062 3.167969 12.992188 4 12.992188 C 4.832031 12.992188 5.503906 13.664062 5.503906 14.496094 Z M 5.503906 14.496094 "/>
<path style=" stroke:none;fill-rule:nonzero;fill:rgb(13.333334%,13.333334%,13.333334%);fill-opacity:1;" d="M 9.503906 14.496094 C 9.503906 15.328125 8.832031 16 8 16 C 7.167969 16 6.496094 15.328125 6.496094 14.496094 C 6.496094 13.664062 7.167969 12.992188 8 12.992188 C 8.832031 12.992188 9.503906 13.664062 9.503906 14.496094 Z M 9.503906 14.496094 "/>
<path style=" stroke:none;fill-rule:nonzero;fill:rgb(13.333334%,13.333334%,13.333334%);fill-opacity:1;" d="M 13.503906 14.496094 C 13.503906 15.328125 12.832031 16 12 16 C 11.167969 16 10.496094 15.328125 10.496094 14.496094 C 10.496094 13.664062 11.167969 12.992188 12 12.992188 C 12.832031 12.992188 13.503906 13.664062 13.503906 14.496094 Z M 13.503906 14.496094 "/>
</g>
</svg>
</g>
  </defs>
  <rect
      width="256"
      height="256"
      fill="url(#Gradient)"
      ry="128"
      x="0"
      y="0" />
  <use xlink:href="#child-svg" filter="url(#alpha-to-white)"
       transform="matrix(8,0,0,8,64,64)" />
</svg>
