<?xml version="1.0" encoding="UTF-8"?>
<svg width="256" height="256" version="1.1"
     xmlns="http://www.w3.org/2000/svg"
     xmlns:xlink="http://www.w3.org/1999/xlink">
  <defs>
    <linearGradient id="Gradient" x1="0" x2="0" y1="0" y2="1">
      <stop offset="0%" style="stop-color:#1A5FB4;stop-opacity:1" />
      <stop offset="100%" style="stop-color:#62A0EA;stop-opacity:1" />
    </linearGradient>
    <filter id="alpha-to-white">
      <feColorMatrix in="SourceGraphic" type="matrix"
                     values="0 0 0 1 0
                             0 0 0 1 0
                             0 0 0 1 0
                             0 0 0 1 0"/>
    </filter>
    <g id="child-svg">
<svg xmlns="http://www.w3.org/2000/svg" xmlns:xlink="http://www.w3.org/1999/xlink" width="16px" height="16px" viewBox="0 0 16 16" version="1.1">
<g id="surface1786">
<path style=" stroke:none;fill-rule:nonzero;fill:rgb(13.333334%,13.333334%,13.333334%);fill-opacity:1;" d="M 13.410156 0 L 9.941406 3.457031 C 10.625 3.8125 11.175781 4.367188 11.53125 5.046875 L 11.703125 4.875 L 11.710938 4.882812 L 16.011719 0.582031 L 16.011719 0 Z M 3.011719 1 C 1.367188 1 0.0117188 2.355469 0.0117188 4 L 0.0117188 10 C 0.0117188 11.644531 1.367188 13 3.011719 13 L 13.011719 13 C 14.65625 13 16.011719 11.644531 16.011719 10 L 16.011719 4 C 16.011719 3.429688 15.84375 2.898438 15.5625 2.441406 L 14.011719 3.996094 L 14.011719 10 C 14.011719 10.570312 13.582031 11 13.011719 11 L 3.011719 11 C 2.441406 11 2.011719 10.570312 2.011719 10 L 2.011719 4 C 2.011719 3.429688 2.441406 3 3.011719 3 L 8.980469 3 L 10.988281 1 Z M 8.011719 4 C 6.355469 4 5.011719 5.339844 5.011719 7 L 5.011719 10 L 8.011719 10 C 9.671875 10.007812 11.011719 8.65625 11.011719 7 C 11.011719 5.339844 9.671875 4 8.011719 4 Z M 5.011719 14 C 3.90625 14 3.011719 14.894531 3.011719 16 L 13.011719 16 C 13.011719 14.894531 12.117188 14 11.011719 14 Z M 5.011719 14 "/>
</g>
</svg>
</g>
  </defs>
  <rect
      width="256"
      height="256"
      fill="url(#Gradient)"
      ry="128"
      x="0"
      y="0" />
  <use xlink:href="#child-svg" filter="url(#alpha-to-white)"
       transform="matrix(8,0,0,8,64,64)" />
</svg>
