<?xml version="1.0" encoding="UTF-8"?>
<svg width="256" height="256" version="1.1"
     xmlns="http://www.w3.org/2000/svg"
     xmlns:xlink="http://www.w3.org/1999/xlink">
  <defs>
    <linearGradient id="Gradient" x1="0" x2="0" y1="0" y2="1">
      <stop offset="0%" style="stop-color:#3584E4;stop-opacity:1" />
      <stop offset="100%" style="stop-color:#813D9C;stop-opacity:1" />
    </linearGradient>
    <filter id="alpha-to-white">
      <feColorMatrix in="SourceGraphic" type="matrix"
                     values="0 0 0 0 1 0 0 0 0 1 0 0 0 0 1 0 0 0 1 0"/>
    </filter>
    <g id="child-svg"><svg xmlns="http://www.w3.org/2000/svg" height="16px" viewBox="0 0 16 16" width="16px">
    <path d="m 7.664062 0.0078125 c -2.613281 0.1132815 -5.007812 1.4921875 -6.414062 3.6953125 c -1.90625 3 -1.605469 6.898437 0.738281 9.574219 c 2.347657 2.671875 6.175781 3.472656 9.398438 1.96875 c 0.5 -0.230469 0.714843 -0.828125 0.480469 -1.328125 c -0.234376 -0.5 -0.828126 -0.714844 -1.328126 -0.484375 c -2.417968 1.132812 -5.289062 0.53125 -7.050781 -1.476563 c -1.761719 -2.003906 -1.984375 -4.929687 -0.550781 -7.179687 s 4.179688 -3.285156 6.738281 -2.539063 c 2.566407 0.746094 4.328125 3.09375 4.324219 5.761719 v 0.039062 v 0.960938 c 0 0.359375 -0.1875 0.6875 -0.5 0.863281 c -0.308594 0.183594 -0.6875 0.183594 -1 0 c -0.308594 -0.175781 -0.5 -0.507812 -0.5 -0.863281 v -1 c 0 -2.195312 -1.804688 -4 -4 -4 s -4 1.804688 -4 4 s 1.804688 4 4 4 c 1.042969 0 1.992188 -0.414062 2.707031 -1.078125 c 0.21875 0.265625 0.484375 0.496094 0.792969 0.675781 c 0.929688 0.535156 2.070312 0.535156 3 0 c 0.925781 -0.535156 1.5 -1.527344 1.5 -2.597656 v -1 c -0.003906 -3.554688 -2.347656 -6.683594 -5.761719 -7.683594 c -0.835937 -0.2421872 -1.707031 -0.347656 -2.574219 -0.3085935 z m 0.335938 5.9921875 c 1.117188 0 2 0.882812 2 2 s -0.882812 2 -2 2 s -2 -0.882812 -2 -2 s 0.882812 -2 2 -2 z m 0 0" fill="#222222" />
</svg></g>
  </defs>
  <rect
      width="256"
      height="256"
      fill="url(#Gradient)"
      ry="128"
      x="0"
      y="0" />
  <use xlink:href="#child-svg" filter="url(#alpha-to-white)"
       transform="matrix(8,0,0,8,64,64)" />
</svg>
