<?xml version="1.0" encoding="UTF-8"?>
<svg width="256" height="256" version="1.1"
     xmlns="http://www.w3.org/2000/svg"
     xmlns:xlink="http://www.w3.org/1999/xlink">
  <defs>
    <linearGradient id="Gradient" x1="0" x2="0" y1="0" y2="1">
      <stop offset="0%" style="stop-color:#813D9C;stop-opacity:1" />
      <stop offset="100%" style="stop-color:#813D9C;stop-opacity:1" />
    </linearGradient>
    <filter id="alpha-to-white">
      <feColorMatrix in="SourceGraphic" type="matrix"
                     values="0 0 0 0 1 0 0 0 0 1 0 0 0 0 1 0 0 0 1 0"/>
    </filter>
    <g id="child-svg"><svg xmlns="http://www.w3.org/2000/svg" height="16px" viewBox="0 0 16 16" width="16px">
    <path d="m 11.449219 1.105469 c -0.496094 -0.246094 -1.097657 -0.046875 -1.34375 0.449219 l -6 12 c -0.246094 0.492187 -0.046875 1.09375 0.449219 1.339843 c 0.492187 0.246094 1.09375 0.046875 1.339843 -0.445312 l 6 -12 c 0.246094 -0.496094 0.046875 -1.097657 -0.445312 -1.34375 z m 0 0" />
    <path d="m 10.949219 7.976562 c -0.265625 -0.003906 -0.523438 0.101563 -0.710938 0.285157 c -0.394531 0.386719 -0.398437 1.019531 -0.011719 1.414062 l 1.792969 1.828125 l -1.792969 1.824219 c -0.386718 0.394531 -0.382812 1.027344 0.011719 1.414063 c 0.394531 0.386718 1.027344 0.382812 1.414063 -0.011719 l 3.171875 -3.226563 l -3.171875 -3.226562 c -0.1875 -0.191406 -0.4375 -0.300782 -0.703125 -0.300782 z m 0 0" />
    <path d="m 4.992188 0.949219 c -0.265626 0 -0.519532 0.109375 -0.703126 0.296875 l -3.171874 3.226562 l 3.171874 3.226563 c 0.386719 0.394531 1.019532 0.402343 1.414063 0.015625 c 0.390625 -0.386719 0.398437 -1.023438 0.011719 -1.414063 l -1.792969 -1.828125 l 1.792969 -1.824218 c 0.386718 -0.394532 0.378906 -1.027344 -0.011719 -1.414063 c -0.191406 -0.1875 -0.449219 -0.289063 -0.710937 -0.285156 z m 0 0" />
</svg></g>
  </defs>
  <rect
      width="256"
      height="256"
      fill="url(#Gradient)"
      ry="128"
      x="0"
      y="0" />
  <use xlink:href="#child-svg" filter="url(#alpha-to-white)"
       transform="matrix(8,0,0,8,64,64)" />
</svg>
