<?xml version="1.0" encoding="UTF-8"?>
<svg width="256" height="256" version="1.1"
     xmlns="http://www.w3.org/2000/svg"
     xmlns:xlink="http://www.w3.org/1999/xlink">
  <defs>
    <linearGradient id="Gradient" x1="0" x2="0" y1="0" y2="1">
      <stop offset="0%" style="stop-color:#5E5C64;stop-opacity:1" />
      <stop offset="100%" style="stop-color:#5E5C64;stop-opacity:1" />
    </linearGradient>
    <filter id="alpha-to-white">
      <feColorMatrix in="SourceGraphic" type="matrix"
                     values="0 0 0 0 1 0 0 0 0 1 0 0 0 0 1 0 0 0 1 0"/>
    </filter>
    <g id="child-svg"><svg xmlns="http://www.w3.org/2000/svg" height="16px" viewBox="0 0 16 16" width="16px">
    <path d="m 5 11 h 1.058594 v 1 h -1.058594 z m 0 0" fill="#241f31" />
    <path d="m 2 1.007812 c 0.003906 0.265626 0.109375 0.519532 0.300781 0.703126 l 3.226563 3.171874 l 3.226562 -3.171874 c 0.390625 -0.386719 0.398438 -1.019532 0.011719 -1.414063 c -0.386719 -0.390625 -1.019531 -0.398437 -1.414063 -0.011719 l -1.824218 1.792969 l -1.828125 -1.792969 c -0.394531 -0.386718 -1.027344 -0.378906 -1.414063 0.011719 c -0.1875 0.191406 -0.289062 0.449219 -0.285156 0.710937 z m 0 0" />
    <path d="m 2 14.988281 c 0.003906 -0.265625 0.109375 -0.519531 0.300781 -0.703125 l 3.226563 -3.171875 l 3.226562 3.171875 c 0.390625 0.386719 0.398438 1.019532 0.011719 1.414063 s -1.019531 0.398437 -1.414063 0.011719 l -1.824218 -1.792969 l -1.828125 1.792969 c -0.394531 0.386718 -1.027344 0.382812 -1.414063 -0.011719 c -0.1875 -0.191407 -0.289062 -0.445313 -0.285156 -0.710938 z m 0 0" />
    <g fill="#241f31">
        <path d="m 9 5 c 0.550781 0 1 0.449219 1 1 v 4 c 0 0.550781 -0.449219 1 -1 1 s -1 -0.449219 -1 -1 v -4 c 0 -0.550781 0.449219 -1 1 -1 z m 0 0" />
        <path d="m 13 5 c 0.550781 0 1 0.449219 1 1 v 4 c 0 0.550781 -0.449219 1 -1 1 s -1 -0.449219 -1 -1 v -4 c 0 -0.550781 0.449219 -1 1 -1 z m 0 0" />
        <path d="m 9 7 h 4 v 2 h -4 z m 0 0" />
        <path d="m 5 9 h 1.058594 v 1 h -1.058594 z m 0 0" />
        <path d="m 5 7 h 1.058594 v 1 h -1.058594 z m 0 0" />
        <path d="m 5 5 h 1.058594 v 1 h -1.058594 z m 0 0" />
    </g>
</svg></g>
  </defs>
  <rect
      width="256"
      height="256"
      fill="url(#Gradient)"
      ry="128"
      x="0"
      y="0" />
  <use xlink:href="#child-svg" filter="url(#alpha-to-white)"
       transform="matrix(8,0,0,8,64,64)" />
</svg>
