<?xml version="1.0" encoding="UTF-8"?>
<svg width="256" height="256" version="1.1"
     xmlns="http://www.w3.org/2000/svg"
     xmlns:xlink="http://www.w3.org/1999/xlink">
  <defs>
    <linearGradient id="Gradient" x1="0" x2="0" y1="0" y2="1">
      <stop offset="0%" style="stop-color:#C061CB;stop-opacity:1" />
      <stop offset="100%" style="stop-color:#C061CB;stop-opacity:1" />
    </linearGradient>
    <filter id="alpha-to-white">
      <feColorMatrix in="SourceGraphic" type="matrix"
                     values="0 0 0 1 0
                             0 0 0 1 0
                             0 0 0 1 0
                             0 0 0 1 0"/>
    </filter>
    <g id="child-svg">
<svg xmlns="http://www.w3.org/2000/svg" xmlns:xlink="http://www.w3.org/1999/xlink" width="16px" height="16px" viewBox="0 0 16 16" version="1.1">
<g id="surface8308">
<path style=" stroke:none;fill-rule:nonzero;fill:rgb(18.039216%,20.392157%,21.176471%);fill-opacity:1;" d="M 2.5 2 C 1.132812 2 0 3.132812 0 4.5 L 0 11.5 C 0 12.867188 1.132812 14 2.5 14 L 13.5 14 C 14.867188 14 16 12.867188 16 11.5 L 16 4.5 C 16 3.132812 14.867188 2 13.5 2 Z M 12.5 7 L 13.5 7 C 13.777344 7 14 7.222656 14 7.5 L 14 8.5 C 14 8.777344 13.777344 9 13.5 9 L 12.5 9 C 12.222656 9 12 8.777344 12 8.5 L 12 7.5 C 12 7.222656 12.222656 7 12.5 7 Z M 7.007812 11.5 L 7.007812 7.5 C 7.007812 7.222656 7.230469 7 7.507812 7 L 8.507812 7 C 8.785156 7 9.007812 7.222656 9.007812 7.5 L 9.007812 11.5 C 9.007812 11.777344 8.785156 12 8.507812 12 L 7.507812 12 C 7.230469 12 7.007812 11.777344 7.007812 11.5 Z M 11.5 10 L 12.5 10 C 12.777344 10 13 10.222656 13 10.5 L 13 11.5 C 13 11.777344 12.777344 12 12.5 12 L 11.5 12 C 11.222656 12 11 11.777344 11 11.5 L 11 10.5 C 11 10.222656 11.222656 10 11.5 10 Z M 7.519531 3.988281 L 8.519531 3.988281 C 8.796875 3.988281 9.019531 4.210938 9.019531 4.488281 L 9.019531 5.488281 C 9.019531 5.765625 8.796875 5.988281 8.519531 5.988281 L 7.519531 5.988281 C 7.242188 5.988281 7.019531 5.765625 7.019531 5.488281 L 7.019531 4.488281 C 7.019531 4.210938 7.242188 3.988281 7.519531 3.988281 Z M 3.496094 7 L 4.496094 7 C 4.773438 7 4.996094 7.222656 4.996094 7.5 L 4.996094 8.5 C 4.996094 8.777344 4.773438 9 4.496094 9 L 3.496094 9 C 3.21875 9 2.996094 8.777344 2.996094 8.5 L 2.996094 7.5 C 2.996094 7.222656 3.21875 7 3.496094 7 Z M 2.496094 10 L 3.496094 10 C 3.773438 10 3.996094 10.222656 3.996094 10.5 L 3.996094 11.5 C 3.996094 11.777344 3.773438 12 3.496094 12 L 2.496094 12 C 2.21875 12 1.996094 11.777344 1.996094 11.5 L 1.996094 10.5 C 1.996094 10.222656 2.21875 10 2.496094 10 Z M 2.496094 10 "/>
<path style=" stroke:none;fill-rule:nonzero;fill:rgb(18.039216%,20.392157%,21.176471%);fill-opacity:0.501961;" d="M 10 6 L 15 6 L 15 13 L 10 13 Z M 10 6 "/>
<path style=" stroke:none;fill-rule:nonzero;fill:rgb(18.039216%,20.392157%,21.176471%);fill-opacity:0.501961;" d="M 1 6 L 6 6 L 6 13 L 1 13 Z M 1 6 "/>
</g>
</svg>
</g>
  </defs>
  <rect
      width="256"
      height="256"
      fill="url(#Gradient)"
      ry="128"
      x="0"
      y="0" />
  <use xlink:href="#child-svg" filter="url(#alpha-to-white)"
       transform="matrix(8,0,0,8,64,64)" />
</svg>
