<?xml version="1.0" encoding="UTF-8"?>
<svg width="256" height="256" version="1.1"
     xmlns="http://www.w3.org/2000/svg"
     xmlns:xlink="http://www.w3.org/1999/xlink">
  <defs>
    <linearGradient id="Gradient" x1="0" x2="0" y1="0" y2="1">
      <stop offset="0%" style="stop-color:#FF7800;stop-opacity:1" />
      <stop offset="100%" style="stop-color:#9141AC;stop-opacity:1" />
    </linearGradient>
    <filter id="alpha-to-white">
      <feColorMatrix in="SourceGraphic" type="matrix"
                     values="0 0 0 1 0
                             0 0 0 1 0
                             0 0 0 1 0
                             0 0 0 1 0"/>
    </filter>
    <g id="child-svg">
<svg xmlns="http://www.w3.org/2000/svg" xmlns:xlink="http://www.w3.org/1999/xlink" width="16px" height="16px" viewBox="0 0 16 16" version="1.1">
<g id="surface1319">
<path style=" stroke:none;fill-rule:nonzero;fill:rgb(14.117648%,12.156863%,19.215687%);fill-opacity:1;" d="M 10 12.496094 C 10 14.425781 8.4375 15.988281 6.507812 15.988281 C 4.582031 15.988281 3.015625 14.425781 3.015625 12.496094 C 3.015625 10.566406 4.582031 9.003906 6.507812 9.003906 C 8.4375 9.003906 10 10.566406 10 12.496094 Z M 10 12.496094 "/>
<path style=" stroke:none;fill-rule:nonzero;fill:rgb(14.117648%,12.156863%,19.215687%);fill-opacity:1;" d="M 9.015625 8 L 15.015625 8 C 15.222656 8 15.414062 7.890625 15.519531 7.710938 C 15.625 7.53125 15.625 7.3125 15.519531 7.132812 L 12.511719 1.867188 C 12.410156 1.691406 12.222656 1.582031 12.015625 1.582031 C 11.8125 1.582031 11.625 1.691406 11.519531 1.867188 L 8.511719 7.132812 C 8.410156 7.3125 8.410156 7.53125 8.515625 7.710938 C 8.621094 7.890625 8.8125 8 9.015625 8 Z M 9.015625 8 "/>
<path style=" stroke:none;fill-rule:nonzero;fill:rgb(14.117648%,12.156863%,19.215687%);fill-opacity:1;" d="M 0.308594 3.375 L 3.390625 0.292969 C 3.78125 -0.0976562 4.414062 -0.0976562 4.804688 0.292969 L 7.894531 3.375 C 8.082031 3.5625 8.1875 3.816406 8.1875 4.082031 C 8.1875 4.347656 8.082031 4.601562 7.894531 4.789062 L 4.808594 7.875 C 4.417969 8.265625 3.785156 8.265625 3.394531 7.875 L 0.308594 4.789062 C -0.0820312 4.398438 -0.0820312 3.765625 0.308594 3.375 Z M 0.308594 3.375 "/>
</g>
</svg>
</g>
  </defs>
  <rect
      width="256"
      height="256"
      fill="url(#Gradient)"
      ry="128"
      x="0"
      y="0" />
  <use xlink:href="#child-svg" filter="url(#alpha-to-white)"
       transform="matrix(8,0,0,8,64,64)" />
</svg>
