<?xml version="1.0" encoding="UTF-8"?>
<svg width="256" height="256" version="1.1"
     xmlns="http://www.w3.org/2000/svg"
     xmlns:xlink="http://www.w3.org/1999/xlink">
  <defs>
    <linearGradient id="Gradient" x1="0" x2="0" y1="0" y2="1">
      <stop offset="0%" style="stop-color:#8FF0A4;stop-opacity:1" />
      <stop offset="100%" style="stop-color:#26A269;stop-opacity:1" />
    </linearGradient>
    <filter id="alpha-to-white">
      <feColorMatrix in="SourceGraphic" type="matrix"
                     values="0 0 0 0 0 0 0 0 0 0 0 0 0 0 0 0 0 0 0.8 0"/>
    </filter>
    <g id="child-svg"><svg xmlns="http://www.w3.org/2000/svg" height="16px" viewBox="0 0 16 16" width="16px">
    <path d="m 14 6 v 6 l 2 -1 v -5 z m 0 0" />
    <path d="m 7.5 1.132812 l -6.925781 4 c -0.3125 0.179688 -0.5039065 0.507813 -0.5039065 0.867188 c 0 0.355469 0.1914065 0.6875 0.5039065 0.867188 l 6.925781 4 c 0.308594 0.175781 0.691406 0.175781 1 0 l 6.929688 -4 c 0.308593 -0.179688 0.5 -0.511719 0.5 -0.867188 c 0 -0.359375 -0.191407 -0.6875 -0.5 -0.867188 l -6.929688 -4 c -0.308594 -0.179687 -0.691406 -0.179687 -1 0 z m 0.5 2.023438 l 4.929688 2.84375 l -4.929688 2.84375 l -4.925781 -2.84375 z m 0 0" />
    <path d="m 4 7 c -0.550781 0 -1 0.449219 -1 1 v 4 c 0 0.359375 0.191406 0.6875 0.5 0.867188 l 4 2.3125 c 0.308594 0.175781 0.691406 0.175781 1 0 l 4 -2.3125 c 0.308594 -0.179688 0.5 -0.507813 0.5 -0.867188 v -3.886719 c 0 -0.550781 -0.449219 -1 -1 -1 s -1 0.449219 -1 1 v 3.308594 l -3 1.734375 l -3 -1.734375 v -3.421875 c 0 -0.550781 -0.449219 -1 -1 -1 z m 0 0" />
</svg></g>
  </defs>
  <rect
      width="256"
      height="256"
      fill="url(#Gradient)"
      ry="128"
      x="0"
      y="0" />
  <use xlink:href="#child-svg" filter="url(#alpha-to-white)"
       transform="matrix(8,0,0,8,64,64)" />
</svg>
