<?xml version="1.0" encoding="UTF-8"?>
<svg width="256" height="256" version="1.1"
     xmlns="http://www.w3.org/2000/svg"
     xmlns:xlink="http://www.w3.org/1999/xlink">
  <defs>
    <linearGradient id="Gradient" x1="0" x2="0" y1="0" y2="1">
      <stop offset="0%" style="stop-color:#33D17A;stop-opacity:1" />
      <stop offset="100%" style="stop-color:#C061CB;stop-opacity:1" />
    </linearGradient>
    <filter id="alpha-to-white">
      <feColorMatrix in="SourceGraphic" type="matrix"
                     values="0 0 0 0 1 0 0 0 0 1 0 0 0 0 1 0 0 0 1 0"/>
    </filter>
    <g id="child-svg"><svg xmlns="http://www.w3.org/2000/svg" height="16px" viewBox="0 0 16 16" width="16px">
    <path d="m 3 0.992188 c -1.644531 0 -3 1.355468 -3 3 v 1 c 0 1.644531 1.355469 3 3 3 h 10 c 1.644531 0 3 -1.355469 3 -3 v -1 c 0 -1.644532 -1.355469 -3 -3 -3 z m 0 2 h 10 c 0.570312 0 1 0.429687 1 1 v 1 c 0 0.570312 -0.429688 1 -1 1 h -10 c -0.570312 0 -1 -0.429688 -1 -1 v -1 c 0 -0.570313 0.429688 -1 1 -1 z m 0 0" />
    <path d="m 3.007812 10.558594 c 0 0.832031 -0.671874 1.503906 -1.503906 1.503906 c -0.832031 0 -1.503906 -0.671875 -1.503906 -1.503906 c 0 -0.828125 0.671875 -1.503906 1.503906 -1.503906 c 0.832032 0 1.503906 0.675781 1.503906 1.503906 z m 0 0" />
    <path d="m 3.007812 14.496094 c 0 0.832031 -0.671874 1.503906 -1.503906 1.503906 c -0.832031 0 -1.503906 -0.671875 -1.503906 -1.503906 c 0 -0.832032 0.671875 -1.503906 1.503906 -1.503906 c 0.832032 0 1.503906 0.671874 1.503906 1.503906 z m 0 0" />
    <path d="m 5.5 9 h 9 c 0.828125 0 1.5 0.671875 1.5 1.5 s -0.671875 1.5 -1.5 1.5 h -9 c -0.828125 0 -1.5 -0.671875 -1.5 -1.5 s 0.671875 -1.5 1.5 -1.5 z m 0 0" />
    <path d="m 5.5 13 h 9 c 0.828125 0 1.5 0.671875 1.5 1.5 s -0.671875 1.5 -1.5 1.5 h -9 c -0.828125 0 -1.5 -0.671875 -1.5 -1.5 s 0.671875 -1.5 1.5 -1.5 z m 0 0" />
</svg></g>
  </defs>
  <rect
      width="256"
      height="256"
      fill="url(#Gradient)"
      ry="128"
      x="0"
      y="0" />
  <use xlink:href="#child-svg" filter="url(#alpha-to-white)"
       transform="matrix(8,0,0,8,64,64)" />
</svg>
