<?xml version="1.0" encoding="UTF-8"?>
<svg width="256" height="256" version="1.1"
     xmlns="http://www.w3.org/2000/svg"
     xmlns:xlink="http://www.w3.org/1999/xlink">
  <defs>
    <linearGradient id="Gradient" x1="0" x2="0" y1="0" y2="1">
      <stop offset="0%" style="stop-color:#FF7800;stop-opacity:1" />
      <stop offset="100%" style="stop-color:#FF7800;stop-opacity:1" />
    </linearGradient>
    <filter id="alpha-to-white">
      <feColorMatrix in="SourceGraphic" type="matrix"
                     values="0 0 0 1 0
                             0 0 0 1 0
                             0 0 0 1 0
                             0 0 0 1 0"/>
    </filter>
    <g id="child-svg">
<svg height="16px" viewBox="0 0 16 16" width="16px" xmlns="http://www.w3.org/2000/svg">
    <path d="m 2 2 v 0.878906 c -0.035156 0.039063 -0.070312 0.082032 -0.101562 0.121094 h -0.898438 v 4 h -1 v 3 c -0.0429688 0.21875 -0.0390625 0.4375 0 0.65625 v 1.34375 h 1 v 1 h 4 v -1 h 1 v -3 h 1 v -1 h 1 v 0.042969 c 1.089844 -0.003907 1.976562 0.867187 2 1.957031 c 0 1.660156 1.339844 3 3 3 s 3.324219 -1.371094 3 -3 l -1 -5 c -0.324219 -1.628906 -1.339844 -3 -3 -3 z m 7.96875 1.96875 c 0.589844 0 1.0625 0.476562 1.0625 1.0625 s -0.472656 1.0625 -1.0625 1.0625 c -0.585938 0 -1.0625 -0.476562 -1.0625 -1.0625 s 0.476562 -1.0625 1.0625 -1.0625 z m -5.96875 0.03125 h 1 v 1 h 1 v 1 h -1 v 1 h -1 v -1 h -1 v -1 h 1 z m 8.980469 1.90625 c 0.59375 0 1.078125 0.484375 1.078125 1.078125 c 0 0.597656 -0.484375 1.078125 -1.078125 1.078125 s -1.078125 -0.480469 -1.078125 -1.078125 c 0 -0.59375 0.484375 -1.078125 1.078125 -1.078125 z m 0 0" fill="#2e3436"/>
    <g fill="#241f31">
        <path d="m 6 1 h 1 v 1 h -1 z m 0 0"/>
        <path d="m 7 0 h 1 v 1 h -1 z m 0 0"/>
    </g>
</svg>
</g>
  </defs>
  <rect
      width="256"
      height="256"
      fill="url(#Gradient)"
      ry="128"
      x="0"
      y="0" />
  <use xlink:href="#child-svg" filter="url(#alpha-to-white)"
       transform="matrix(8,0,0,8,64,64)" />
</svg>
