<?xml version="1.0" encoding="UTF-8"?>
<svg width="256" height="256" version="1.1"
     xmlns="http://www.w3.org/2000/svg"
     xmlns:xlink="http://www.w3.org/1999/xlink">
  <defs>
    <linearGradient id="Gradient" x1="0" x2="0" y1="0" y2="1">
      <stop offset="0%" style="stop-color:#613583;stop-opacity:1" />
      <stop offset="100%" style="stop-color:#613583;stop-opacity:1" />
    </linearGradient>
    <filter id="alpha-to-white">
      <feColorMatrix in="SourceGraphic" type="matrix"
                     values="0 0 0 0 1 0 0 0 0 1 0 0 0 0 1 0 0 0 1 0"/>
    </filter>
    <g id="child-svg"><svg xmlns="http://www.w3.org/2000/svg" height="16px" viewBox="0 0 16 16" width="16px">
    <path d="m 7.980469 0.121094 l -6.980469 3.992187 l 0.015625 5.210938 l 2.324219 -1.265625 c 0.003906 -2.511719 2.152344 -4.546875 4.664062 -4.546875 c 0.773438 0.003906 1.53125 0.199219 2.207032 0.574219 l -3.515626 2.089843 l 0.011719 2.652344 l 2.300781 1.320313 l 3.546876 -2.101563 v 0.015625 c 0 2.515625 -2.035157 4.550781 -4.550782 4.550781 c -0.652344 0 -1.273437 -0.136719 -1.832031 -0.386719 l -2.539063 1.320313 l 4.394532 2.457031 l 6.980468 -3.988281 l -0.023437 -7.941406 z m 0 0" fill="#222222" />
</svg></g>
  </defs>
  <rect
      width="256"
      height="256"
      fill="url(#Gradient)"
      ry="128"
      x="0"
      y="0" />
  <use xlink:href="#child-svg" filter="url(#alpha-to-white)"
       transform="matrix(8,0,0,8,64,64)" />
</svg>
