<?xml version="1.0" encoding="UTF-8"?>
<svg width="256" height="256" version="1.1"
     xmlns="http://www.w3.org/2000/svg"
     xmlns:xlink="http://www.w3.org/1999/xlink">
  <defs>
    <linearGradient id="Gradient" x1="0" x2="0" y1="0" y2="1">
      <stop offset="0%" style="stop-color:#F6D32D;stop-opacity:1" />
      <stop offset="100%" style="stop-color:#F6D32D;stop-opacity:1" />
    </linearGradient>
    <filter id="alpha-to-white">
      <feColorMatrix in="SourceGraphic" type="matrix"
                     values="0 0 0 0 0 0 0 0 0 0 0 0 0 0 0 0 0 0 0.8 0"/>
    </filter>
    <g id="child-svg"><svg xmlns="http://www.w3.org/2000/svg" height="16px" viewBox="0 0 16 16" width="16px">
    <g fill="#222222">
        <path d="m 10.421875 1.007812 c -1.359375 -1.359374 -3.601563 -1.242187 -4.976563 0.132813 l -4.304687 4.304687 c -1.375 1.375 -1.492187 3.617188 -0.132813 4.976563 l 4.570313 4.570313 c 1.359375 1.359374 3.597656 1.242187 4.976563 -0.132813 l 4.304687 -4.308594 c 1.375 -1.375 1.492187 -3.613281 0.132813 -4.972656 z m -1.414063 1.414063 l 4.570313 4.570313 c 0.542969 0.539062 0.539063 1.476562 -0.132813 2.144531 l -4.308593 4.308593 c -0.667969 0.671876 -1.601563 0.675782 -2.144531 0.132813 l -4.570313 -4.570313 c -0.542969 -0.542968 -0.539063 -1.476562 0.132813 -2.148437 l 4.304687 -4.304687 c 0.671875 -0.671876 1.605469 -0.675782 2.148437 -0.132813 z m 0 0" />
        <path d="m 8.292969 3.191406 c -1.304688 -0.089844 -2.640625 0.308594 -3.675781 1.25 c -1.855469 1.691406 -2.109376 4.671875 -0.371094 6.554688 c 1.539062 1.667968 4.238281 1.886718 5.929687 0.296875 c 1.476563 -1.386719 1.664063 -3.804688 0.222657 -5.304688 c -1.234376 -1.285156 -3.375 -1.445312 -4.683594 -0.148437 c -1.09375 1.085937 -1.222656 2.945312 -0.066406 4.0625 c 0.933593 0.90625 2.515624 0.996094 3.441406 -0.015625 c 0.710937 -0.785157 0.769531 -2.097657 -0.113282 -2.824219 c -0.320312 -0.257812 -0.71875 -0.386719 -1.121093 -0.367188 c -0.40625 0.019532 -0.828125 0.210938 -1.085938 0.597657 c -0.164062 0.246093 -0.226562 0.539062 -0.183593 0.835937 c 0.042968 0.300782 0.25 0.636719 0.605468 0.761719 c 0.265625 0.089844 0.425782 0.039063 0.625 -0.074219 c 0.101563 -0.054687 0.226563 -0.148437 0.289063 -0.328125 c 0.058593 -0.183593 -0.007813 -0.40625 -0.109375 -0.53125 c -0.140625 -0.164062 -0.386719 -0.191406 -0.5625 -0.0625 c 0.007812 -0.054687 0.011718 -0.109375 0.03125 -0.140625 c 0.101562 -0.152344 0.242187 -0.21875 0.429687 -0.226562 c 0.191407 -0.011719 0.40625 0.058594 0.554688 0.179687 c 0.476562 0.390625 0.441406 1.160157 0.023437 1.617188 c -0.582031 0.640625 -1.628906 0.578125 -2.246094 -0.019531 c -0.796874 -0.769532 -0.707031 -2.097657 0.074219 -2.871094 c 0.960938 -0.953125 2.570313 -0.832032 3.5 0.132812 c 1.101563 1.148438 0.953125 3.042969 -0.195312 4.121094 c -1.339844 1.257812 -3.515625 1.078125 -4.75 -0.257812 c -1.410157 -1.527344 -1.199219 -3.984376 0.324219 -5.371094 c 1.714843 -1.5625 4.457031 -1.324219 5.996093 0.386718 c 1.492188 1.65625 1.511719 4.234376 0.148438 5.980469 c -0.140625 0.183594 -0.109375 0.445313 0.074219 0.585938 c 0.179687 0.140625 0.441406 0.109375 0.582031 -0.070313 c 1.609375 -2.066406 1.585937 -5.082031 -0.1875 -7.054687 c -0.917969 -1.023438 -2.195313 -1.605469 -3.5 -1.695313 z m 0 0" fill-rule="evenodd" />
    </g>
</svg></g>
  </defs>
  <rect
      width="256"
      height="256"
      fill="url(#Gradient)"
      ry="128"
      x="0"
      y="0" />
  <use xlink:href="#child-svg" filter="url(#alpha-to-white)"
       transform="matrix(8,0,0,8,64,64)" />
</svg>
